<svg width="21" height="20" viewBox="0 0 21 20" fill="none" xmlns="http://www.w3.org/2000/svg">
<path fill-rule="evenodd" clip-rule="evenodd" d="M17.4878 8.38818L11.2558 2.46817C13.2238 0.494174 16.2718 -0.493825 20.0558 1.10218C20.6458 3.27418 19.6798 6.49618 17.4878 8.38818ZM15.1558 2.28217C14.3858 3.05217 15.5558 4.26618 16.2978 3.53018C17.1718 2.65618 15.9058 1.52617 15.1558 2.28217ZM15.3378 10.3902L8.72184 3.73217L9.73984 2.58818L16.4818 9.44217L15.3378 10.3902ZM13.2938 12.5482L7.93384 7.11217L8.66984 5.49617L14.7658 11.7482L13.2938 12.5482ZM8.87984 12.1482L5.60984 8.68818L6.33784 7.14217L10.3058 11.4202L8.87984 12.1482ZM6.32784 11.2622L8.32784 13.2302C9.07784 17.5622 6.81784 19.0302 6.81784 19.0302L4.67184 15.4642L0.381836 13.2842C0.381836 13.2842 3.34584 10.9182 6.32784 11.2622Z" fill="black"/>
</svg>
